<svg viewBox="0 0 20 20" fill="none" xmlns="http://www.w3.org/2000/svg">
<path fill-rule="evenodd" clip-rule="evenodd" d="M9.99999 4.39999C10.2122 4.39999 10.4157 4.48428 10.5657 4.63431C10.7157 4.78434 10.8 4.98782 10.8 5.19999V9.19999H14.8C15.0122 9.19999 15.2157 9.28428 15.3657 9.43431C15.5157 9.58434 15.6 9.78782 15.6 9.99999C15.6 10.2122 15.5157 10.4157 15.3657 10.5657C15.2157 10.7157 15.0122 10.8 14.8 10.8H10.8V14.8C10.8 15.0122 10.7157 15.2157 10.5657 15.3657C10.4157 15.5157 10.2122 15.6 9.99999 15.6C9.78782 15.6 9.58434 15.5157 9.43431 15.3657C9.28428 15.2157 9.19999 15.0122 9.19999 14.8V10.8H5.19999C4.98782 10.8 4.78434 10.7157 4.63431 10.5657C4.48428 10.4157 4.39999 10.2122 4.39999 9.99999C4.39999 9.78782 4.48428 9.58434 4.63431 9.43431C4.78434 9.28428 4.98782 9.19999 5.19999 9.19999H9.19999V5.19999C9.19999 4.98782 9.28428 4.78434 9.43431 4.63431C9.58434 4.48428 9.78782 4.39999 9.99999 4.39999Z" fill="currentColor"/>
</svg>
